<?xml version="1.0" encoding="UTF-8"?>
<svg height="600" width="800" xmlns="http://www.w3.org/2000/svg" xmlns:xlink="http://www.w3.org/1999/xlink">
    <g id="Notes" font-family="'LucidaGrande', 'Lucida Grande', sans-serif" font-size="13">
        <rect fill="white" height="600.0" width="800.0" x="0.0" y="0.0" />
        <g font-size="13">
            <text x="18.0" y="176.0">Small</text>
            <text x="18.0" y="376.0">Medium</text>
            <text x="18.0" y="576.0">Large</text>
        </g>
        <g font-size="9">
            <text x="250.0" y="30.0">Ultralight</text>
            <text x="450.0" y="30.0">Regular</text>
            <text x="650.0" y="30.0">Black</text>
            <text id="template-version" fill="#505050" text-anchor="end" x="785.0" y="575.0">Template v.3.0</text>
            <a href="https://wangchujiang.com/#/app">
                <text fill="#505050" text-anchor="end" x="785.0" y="590.0">https://wangchujiang.com/#/app</text>
            </a>
        </g>
    </g>
    <g id="Guides" stroke="rgb(39, 170, 225)" stroke-width="0.5">
        <path id="Capline-S" d="M18,76 l800,0" />
        <path id="H-reference" d="M85,145.755 L87.685,145.755 L113.369,79.287 L114.052,79.287 L114.052,76 L112.148,76 L85,145.755 Z M95.693,121.536 L130.996,121.536 L130.263,119.313 L96.474,119.313 L95.693,121.536 Z M139.15,145.755 L141.787,145.755 L114.638,76 L113.466,76 L113.466,79.287 L139.15,145.755 Z" stroke="none" />
        <path id="Baseline-S" d="M18,146 l800,0" />
        <path id="left-margin-Ultralight-S" d="M221,56 l0,110" />
        <path id="right-margin-Ultralight-S" d="M309,56 l0,110" />
        <path id="left-margin-Regular-S" d="M421,56 l0,110" />
        <path id="right-margin-Regular-S" d="M509,56 l0,110" />
        <path id="left-margin-Black-S" d="M621,56 l0,110" />
        <path id="right-margin-Black-S" d="M709,56 l0,110" />
        <path id="Capline-M" d="M18,276 l800,0" />
        <path id="Baseline-M" d="M18,346 l800,0" />
        <path id="Capline-L" d="M18,476 l800,0" />
        <path id="Baseline-L" d="M18,546 l800,0" />
    </g>
    <g id="Symbols">
        <g id="Ultralight-S">
            <path d="M242.98,83.587 C238.304,83.587 234.538,87.351 234.538,92.028 L234.538,111.958 C239.238,111.482 251.966,110.56 255.376,114.229 C259.111,118.248 251.595,141.213 249.983,145.972 L264.147,145.972 L264.147,83.587 Z M285.82,99.726 C282.918,99.722 280.209,99.834 278.859,100.062 C274.264,100.838 271.601,102.244 270.861,104.288 C269.41,108.296 270.718,118.746 274.637,134.441 C275.592,138.265 277.234,144.326 277.753,145.972 L286.981,145.972 C291.658,145.972 295.424,142.206 295.424,137.53 L295.424,100.261 C294.954,100.203 294.504,100.145 293.937,100.083 C291.814,99.851 288.721,99.731 285.82,99.726 Z" />
        </g>
        <g id="Regular-S">
            <path d="M442.98,83.587 C438.304,83.587 434.538,87.351 434.538,92.028 L434.538,111.958 C439.238,111.482 451.966,110.56 455.376,114.229 C459.111,118.248 451.595,141.213 449.983,145.972 L464.147,145.972 L464.147,83.587 Z M485.82,99.726 C482.918,99.722 480.209,99.834 478.859,100.062 C474.264,100.838 471.601,102.244 470.861,104.288 C469.41,108.296 470.718,118.746 474.637,134.441 C475.592,138.265 477.234,144.326 477.753,145.972 L486.981,145.972 C491.658,145.972 495.424,142.206 495.424,137.53 L495.424,100.261 C494.954,100.203 494.504,100.145 493.937,100.083 C491.814,99.851 488.721,99.731 485.82,99.726 Z" />
        </g>
        <g id="Black-S">
            <path d="M642.98,83.587 C638.304,83.587 634.538,87.351 634.538,92.028 L634.538,111.958 C639.238,111.482 651.966,110.56 655.376,114.229 C659.111,118.248 651.595,141.213 649.983,145.972 L664.147,145.972 L664.147,83.587 Z M685.82,99.726 C682.918,99.722 680.209,99.834 678.859,100.062 C674.264,100.838 671.601,102.244 670.861,104.288 C669.41,108.296 670.718,118.746 674.637,134.441 C675.592,138.265 677.234,144.326 677.753,145.972 L686.982,145.972 C691.658,145.972 695.424,142.206 695.424,137.53 L695.424,100.261 C694.954,100.203 694.504,100.145 693.937,100.083 C691.814,99.851 688.721,99.731 685.82,99.726 Z" />
        </g>
    </g>
</svg>